<?xml version="1.0" encoding="UTF-8" standalone="no"?>
<!-- Created with Inkscape (http://www.inkscape.org/) -->

<svg
   xmlns:dc="http://purl.org/dc/elements/1.1/"
   xmlns:cc="http://creativecommons.org/ns#"
   xmlns:rdf="http://www.w3.org/1999/02/22-rdf-syntax-ns#"
   xmlns:svg="http://www.w3.org/2000/svg"
   xmlns="http://www.w3.org/2000/svg"
   xmlns:sodipodi="http://sodipodi.sourceforge.net/DTD/sodipodi-0.dtd"
   xmlns:inkscape="http://www.inkscape.org/namespaces/inkscape"
   width="600"
   height="200"
   viewBox="0 0 600 200"
   version="1.1"
   id="svg4794"
   inkscape:version="0.92.1 r15371"
   sodipodi:docname="netpoint_logo_de.svg">
  <defs
     id="defs4788" />
  <sodipodi:namedview
     id="base"
     pagecolor="#ffffff"
     bordercolor="#666666"
     borderopacity="1.0"
     inkscape:pageopacity="0.0"
     inkscape:pageshadow="2"
     inkscape:zoom="2.5"
     inkscape:cx="276.7487"
     inkscape:cy="96"
     inkscape:document-units="px"
     inkscape:current-layer="layer1"
     showgrid="true"
     units="px"
     inkscape:window-width="1920"
     inkscape:window-height="1017"
     inkscape:window-x="1912"
     inkscape:window-y="-8"
     inkscape:window-maximized="1">
    <inkscape:grid
       type="xygrid"
       id="grid4946" />
  </sodipodi:namedview>
  <metadata
     id="metadata4791">
    <rdf:RDF>
      <cc:Work
         rdf:about="">
        <dc:format>image/svg+xml</dc:format>
        <dc:type
           rdf:resource="http://purl.org/dc/dcmitype/StillImage" />
        <dc:title></dc:title>
      </cc:Work>
    </rdf:RDF>
  </metadata>
  <g
     inkscape:label="Layer 1"
     inkscape:groupmode="layer"
     id="layer1"
     transform="translate(0,-244.08332)">
    <g
       transform="matrix(0,0.18378044,0.18378044,0,281.75453,289.22428)"
       id="g3003">
      <path
         id="path3005"
         style="fill:#7c7b7b;fill-opacity:1;fill-rule:evenodd;stroke:none;stroke-width:1.06666672"
         d="m 0,0 c 0,54.817067 43.364267,82.635733 94.088533,82.635733 74.460797,0 176.729597,-39.271466 176.729597,-126.8128 0,-56.454403 -37.63413,-83.453863 -91.63306,-83.453863 C 106.3712,-127.63093 0,-86.7232 0,0 m 495.81227,-312.53973 v 116.17706 l -205.35574,44.18774 v 2.4448 c 46.63254,18.00213 67.90294,69.545597 67.90294,118.643197 0,156.267733 -139.9136,229.899733 -278.998403,229.899733 -101.4496,0 -166.9024,-58.90987 -166.9024,-160.359467 0,-51.543466 19.6384,-100.631466 65.4528,-126.8128 l -1.637334,-1.637333 -52.3616,11.458133 V -190.63787 L 495.81227,-312.53973"
         inkscape:connector-curvature="0" />
    </g>
    <path
       id="path3007"
       style="fill:#7c7b7b;fill-opacity:1;fill-rule:nonzero;stroke:none;stroke-width:0.19603248"
       d="M 12.55943,437.44871 V 391.32972 H 2.41887 v 46.11899 z"
       inkscape:connector-curvature="0" />
    <g
       transform="matrix(0,0.18378044,0.18378044,0,31.67317,437.4488)"
       id="g3009">
      <path
         id="path3011"
         style="fill:#7c7b7b;fill-opacity:1;fill-rule:nonzero;stroke:none;stroke-width:1.06666672"
         d="M 0,0 V 55.173333 H -204.5376 V 130.384 h -46.39893 V -75.220267 h 46.39893 V 0 Z"
         inkscape:connector-curvature="0" />
    </g>
    <g
       transform="matrix(0,0.18378044,0.18378044,0,79.87563,437.4488)"
       id="g3013">
      <path
         id="path3015"
         style="fill:#7c7b7b;fill-opacity:1;fill-rule:nonzero;stroke:none;stroke-width:1.06666672"
         d="m 0,0 v 49.896533 h -148.3072 v 34.453334 h -33.39093 V 49.896533 h -10.90347 c -15.10293,0 -20.72427,5.632 -20.72427,18.990934 0,6.3232 0.34027,12.3008 1.05174,18.2688 h -37.24907 c -0.36053,-8.433067 -1.41333,-17.572267 -1.41333,-26.352 0,-40.776534 23.2,-60.804267 55.1776,-60.804267 h 14.0608 v -29.8688 h 33.39093 V 0 H 0"
         inkscape:connector-curvature="0" />
    </g>
    <path
       id="path3017"
       style="fill:#7c7b7b;fill-opacity:1;fill-rule:evenodd;stroke:none;stroke-width:0.19603248"
       d="m 126.03499,398.88834 v -7.55666 h -8.71972 v 7.55666 z m -13.30493,0 v -7.55666 h -8.71972 v 7.55666 z m 17.95619,5.1678 h -9.17196 v 17.50395 c 0,6.78311 -2.13167,9.55873 -7.1054,9.55873 -4.26273,0 -5.87608,-2.71289 -5.87608,-8.20141 v -18.86127 h -9.17274 v 20.54088 c 0,8.26766 2.45413,13.75795 12.20714,13.75795 3.87574,0 7.88069,-1.81036 10.20584,-5.55655 h 0.19249 v 4.65029 h 8.72071 v -33.39257"
       inkscape:connector-curvature="0" />
    <g
       transform="matrix(0,0.18378044,0.18378044,0,137.64569,437.4488)"
       id="g3019">
      <path
         id="path3021"
         style="fill:#7c7b7b;fill-opacity:1;fill-rule:nonzero;stroke:none;stroke-width:1.06666672"
         d="m 0,0 v 49.906133 h -81.8848 c -31.97867,0 -58.34453,12.6528 -58.34453,49.195734 0,5.977603 0.7008,13.363203 1.7632,17.932803 h -46.39894 c -1.0528,-3.16587 -1.7536,-7.3856 -1.7536,-10.89814 0,-24.25173 15.81334,-48.858663 38.6624,-57.988263 v -0.7072 h -33.74186 V 0 H 0"
         inkscape:connector-curvature="0" />
    </g>
    <g
       transform="matrix(0,0.18378044,0.18378044,0,220.79241,391.33161)"
       id="g3023">
      <path
         id="path3025"
         style="fill:#7c7b7b;fill-opacity:1;fill-rule:nonzero;stroke:none;stroke-width:1.06666672"
         d="m 0,0 v -55.173333 h 156.05333 c 37.25014,0 54.4768,-12.651734 54.4768,-52.025597 0,-44.62614 -27.0784,-51.6608 -54.4768,-51.6608 H 0 v -55.17334 h 156.05333 c 68.176,0 100.85547,39.36 100.85547,106.83414 C 256.9088,-40.0704 223.8784,0 156.05333,0 H 0"
         inkscape:connector-curvature="0" />
    </g>
    <g
       transform="matrix(0,0.18378044,0.18378044,0,228.53263,437.4488)"
       id="g3027">
      <path
         id="path3029"
         style="fill:#7c7b7b;fill-opacity:1;fill-rule:nonzero;stroke:none;stroke-width:1.06666672"
         d="m 0,0 v 49.906133 h -95.243733 c -36.899197,0 -52.010667,11.605334 -52.010667,38.663467 0,23.19893 14.7616,31.9776 44.63467,31.9776 H 0 v 49.9072 h -111.75893 c -44.9856,0 -74.85974,-13.34933 -74.85974,-66.4224 0,-21.090133 9.84107,-42.881067 30.224,-55.5328 v -1.048533 h -25.30346 V 0 H 0"
         inkscape:connector-curvature="0" />
    </g>
    <g
       transform="matrix(0,0.18378044,0.18378044,0,278.44429,394.04449)"
       id="g3031">
      <path
         id="path3033"
         style="fill:#7c7b7b;fill-opacity:1;fill-rule:nonzero;stroke:none;stroke-width:1.06666672"
         d="M 0,0 V -49.9072 H 54.4768 V -80.126933 H 87.867733 V -49.9072 H 195.05707 c 36.19733,0 43.232,26.712533 43.232,57.2928 0,9.835733 -0.35094,20.734933 -1.7536,29.162667 H 197.52213 C 198.56427,31.282133 198.9248,26.3616 198.9248,21.0848 198.9248,4.224 194.70613,0 177.8304,0 H 87.867733 V 36.548267 H 54.4768 V 0 H 0"
         inkscape:connector-curvature="0" />
    </g>
    <g
       transform="matrix(0,0.18378044,0.18378044,0,321.17444,422.9801)"
       id="g3035">
      <path
         id="path3037"
         style="fill:#7c7b7b;fill-opacity:1;fill-rule:evenodd;stroke:none;stroke-width:1.06666672"
         d="m 0,0 c -55.879467,3.5125333 -107.8912,-26.3616 -107.8912,-88.222933 0,-55.173337 41.4784,-92.778667 95.9456,-92.778667 56.2304,0 95.604267,35.49013 95.604267,92.778667 0,41.117866 -18.279467,71.000533 -61.150934,85.061333 V -47.105067 C 33.751467,-50.266667 46.0384,-66.432 46.0384,-86.465067 46.0384,-114.2336 31.627733,-129.68747 0,-131.09547 Z m -31.627733,-131.09547 c -14.050134,0.70187 -38.6624,9.84107 -38.6624,41.468803 0,24.251734 13.357866,35.149867 38.6624,39.719467 v -81.18827"
         inkscape:connector-curvature="0" />
    </g>
    <g
       transform="matrix(0,0.18378044,0.18378044,0,326.59122,437.4488)"
       id="g3039">
      <path
         id="path3041"
         style="fill:#7c7b7b;fill-opacity:1;fill-rule:nonzero;stroke:none;stroke-width:1.06666672"
         d="m 0,0 v 49.901867 h -81.8848 c -31.97867,0 -58.34453,12.657066 -58.34453,49.205333 0,5.97227 0.7008,13.35787 1.7632,17.91787 h -46.39894 c -1.0528,-3.16694 -1.7536,-7.37494 -1.7536,-10.8832 0,-24.261337 15.81334,-48.864003 38.6624,-58.003203 V 47.4368 h -33.74186 V 0 H 0"
         inkscape:connector-curvature="0" />
    </g>
    <g
       transform="matrix(0,0.18378044,0.18378044,0,352.85608,437.4488)"
       id="g3043">
      <path
         id="path3045"
         style="fill:#7c7b7b;fill-opacity:1;fill-rule:nonzero;stroke:none;stroke-width:1.06666672"
         d="m 0,0 v 49.896533 h -95.243733 c -36.899197,0 -52.010667,11.605334 -52.010667,38.6624 0,23.199997 14.7616,31.988267 44.63467,31.988267 H 0 v 49.8976 h -111.75893 c -44.9856,0 -74.85974,-13.34933 -74.85974,-66.4224 0,-21.085867 9.84107,-42.871467 30.224,-55.528533 v -1.0528 h -25.30346 V 0 H 0"
         inkscape:connector-curvature="0" />
    </g>
    <g
       transform="matrix(0,0.18378044,0.18378044,0,422.78933,422.9801)"
       id="g3047">
      <path
         id="path3049"
         style="fill:#7c7b7b;fill-opacity:1;fill-rule:evenodd;stroke:none;stroke-width:1.06666672"
         d="m 0,0 c -55.879467,3.5168 -107.8912,-26.356267 -107.8912,-88.218667 0,-55.168003 41.4784,-92.778663 95.9456,-92.778663 56.2304,0 95.604267,35.49653 95.604267,92.778663 0,41.128534 -18.279467,71.0016 -61.150934,85.0624003 V -47.090133 C 33.751467,-50.257067 46.0384,-66.4224 46.0384,-86.465067 46.0384,-114.2144 31.627733,-129.67787 0,-131.09013 Z m -31.627733,-131.09013 c -14.050134,0.7008 -38.6624,9.84106 -38.6624,41.46773 0,24.2528 13.357866,35.1456 38.6624,39.7152 v -81.18293"
         inkscape:connector-curvature="0" />
    </g>
    <g
       transform="matrix(0,0.18378044,0.18378044,0,428.20617,437.4488)"
       id="g3051">
      <path
         id="path3053"
         style="fill:#7c7b7b;fill-opacity:1;fill-rule:nonzero;stroke:none;stroke-width:1.06666672"
         d="m 0,0 v 49.906133 h -95.243733 c -36.899197,0 -52.010667,11.595734 -52.010667,38.6528 0,23.199997 14.7616,31.988267 44.63467,31.988267 H 0 v 49.9072 h -111.75893 c -44.9856,0 -74.85974,-13.35893 -74.85974,-66.4224 0,-18.629333 9.84107,-40.416 30.224,-53.073067 v -1.0528 h -94.54186 V 0 H 0"
         inkscape:connector-curvature="0" />
    </g>
    <g
       transform="matrix(0,0.18378044,0.18378044,0,466.75057,437.4488)"
       id="g3055">
      <path
         id="path3057"
         style="fill:#7c7b7b;fill-opacity:1;fill-rule:nonzero;stroke:none;stroke-width:1.06666672"
         d="m 0,0 v 49.9072 h -105.43573 c -35.49547,0 -41.81867,23.8912 -41.81867,33.732267 0,31.636263 24.25173,30.233603 45.33653,30.233603 H 0 v 49.90613 h -101.216 c -22.84907,0 -46.0384,5.26187 -46.0384,33.3824 0,28.4704 20.032,30.58453 44.28373,30.58453 H 0 v 49.9072 h -121.6 c -47.0912,0 -65.01867,-27.7696 -65.01867,-66.432 0,-25.30453 14.41067,-44.2848 30.224,-54.82666 -21.79626,-9.84107 -30.224,-30.22507 -30.224,-53.07414 0,-23.540263 10.8928,-42.52053 29.5232,-55.51893 v -0.711467 h -24.60266 V 0 H 0"
         inkscape:connector-curvature="0" />
    </g>
    <g
       transform="matrix(0,0.18378044,0.18378044,0,556.63021,422.9801)"
       id="g3059">
      <path
         id="path3061"
         style="fill:#7c7b7b;fill-opacity:1;fill-rule:evenodd;stroke:none;stroke-width:1.06666672"
         d="m 0,0 c -55.879467,3.5168 -107.8912,-26.356267 -107.8912,-88.209067 0,-55.187203 41.4784,-92.788263 95.9456,-92.788263 56.2304,0 95.604267,35.49653 95.604267,92.788263 0,41.118934 -18.279467,70.992 -61.150934,85.0528003 V -47.090133 C 33.751467,-50.257067 46.0384,-66.4224 46.0384,-86.4544 46.0384,-114.224 31.627733,-129.68747 0,-131.09013 Z m -31.627733,-131.09013 c -14.050134,0.71146 -38.6624,9.85066 -38.6624,41.478397 0,24.242133 13.357866,35.134933 38.6624,39.704533 v -81.18293"
         inkscape:connector-curvature="0" />
    </g>
    <g
       transform="matrix(0,0.18378044,0.18378044,0,562.04703,437.4488)"
       id="g3063">
      <path
         id="path3065"
         style="fill:#7c7b7b;fill-opacity:1;fill-rule:nonzero;stroke:none;stroke-width:1.06666672"
         d="m 0,0 v 49.9072 h -95.243733 c -36.899197,0 -52.010667,11.604267 -52.010667,38.6624 0,23.19893 14.7616,31.9776 44.63467,31.9776 H 0 v 49.9072 h -111.75893 c -44.9856,0 -74.85974,-13.34827 -74.85974,-66.4224 0,-21.0848 9.84107,-42.881067 30.224,-55.528533 v -1.0624 h -25.30346 V 0 H 0"
         inkscape:connector-curvature="0" />
    </g>
    <g
       transform="matrix(0,0.18378044,0.18378044,0,3.01601,352.97878)"
       id="g3067">
      <path
         id="path3069"
         style="fill:#e63027;fill-opacity:1;fill-rule:nonzero;stroke:none;stroke-width:1.06666672"
         d="m 0,0 v 116.18773 h -221.7152 c -85.91893,0 -121.09867,26.98987 -121.09867,89.9968 0,53.98934 34.36054,74.45014 103.90614,74.45014 H 0 V 396.8128 h -260.17813 c -104.72427,0 -174.2688,-31.08693 -174.2688,-154.62613 0,-49.09334 22.90666,-99.82827 70.36266,-129.27787 v -2.45547 h -58.90986 V 0 H 0"
         inkscape:connector-curvature="0" />
    </g>
    <g
       transform="matrix(0,0.18378044,0.18378044,0,165.81579,319.29878)"
       id="g3071">
      <path
         id="path3073"
         style="fill:#e63027;fill-opacity:1;fill-rule:evenodd;stroke:none;stroke-width:1.06666672"
         d="m 0,0 c -130.096,8.1802667 -251.18507,-61.36 -251.18507,-205.35573 0,-128.45014 96.544,-215.99147 223.356803,-215.99147 130.915197,0 222.543997,82.63573 222.543997,215.99147 0,95.72586 -42.5408,165.26613 -142.35413,197.9946633 V -109.62987 c 26.181333,-7.3664 54.8128,-45.00053 54.8128,-91.63413 0,-64.6336 -33.5424,-100.63147 -107.1744,-103.90507 z m -73.646933,-305.16907 c -32.724267,1.63627 -89.996797,22.90667 -89.996797,96.53974 0,56.4544 31.09226,81.81653 89.996797,92.4512 v -188.99094"
         inkscape:connector-curvature="0" />
    </g>
    <g
       transform="matrix(0,0.18378044,0.18378044,0,205.48923,251.93512)"
       id="g3075">
      <path
         id="path3077"
         style="fill:#e63027;fill-opacity:1;fill-rule:nonzero;stroke:none;stroke-width:1.06666672"
         d="m 0,0 v -116.17813 h 126.8128 v -70.36267 h 77.7248 v 70.36267 h 249.54773 c 84.26774,0 100.63147,62.179197 100.63147,133.35573 0,22.907733 -0.81813,48.269867 -4.09173,67.908267 H 459.81013 C 462.2656,72.813867 463.08373,61.36 463.08373,49.088 463.08373,9.8165333 453.2672,0 413.99573,0 H 204.5376 V 85.085867 H 126.8128 V 0 H 0"
         inkscape:connector-curvature="0" />
    </g>
    <g
       transform="matrix(0,0.18378044,0.18378044,0,326.50545,321.55413)"
       id="g3079">
      <path
         id="path3081"
         style="fill:#7c7b7b;fill-opacity:1;fill-rule:evenodd;stroke:none;stroke-width:1.06666672"
         d="m 0,0 c 121.08373,0 182.44373,76.0832 182.44373,193.90187 0,153.81226 -117.81013,246.26026 -266.72533,246.26026 -121.90293,0 -179.17547,-80.9984 -179.17547,-197.1712 C -263.45707,92.452267 -143.1776,0 0,0 m 0,116.17813 c -71.191467,0 -175.91573,37.6288 -175.91573,122.72 0,60.54614 36.82133,85.0912 93.279997,85.0912 71.181866,0 177.538133,-37.63946 177.538133,-124.35733 0,-54.81813 -44.996267,-83.45387 -94.9024,-83.45387"
         inkscape:connector-curvature="0" />
    </g>
    <g
       transform="matrix(0,0.18378044,0.18378044,0,412.31932,352.97878)"
       id="g3083">
      <path
         id="path3085"
         style="fill:#7c7b7b;fill-opacity:1;fill-rule:evenodd;stroke:none;stroke-width:1.06666672"
         d="m 0,0 v 117.00053 l -422.99413,89.99254 V 90.001067 Z m -584.16747,241.35893 v -116.992 l 95.7216,-21.26933 v 116.99093 z"
         inkscape:connector-curvature="0" />
    </g>
    <g
       transform="matrix(0,0.18378044,0.18378044,0,451.22728,352.97878)"
       id="g3087">
      <path
         id="path3089"
         style="fill:#7c7b7b;fill-opacity:1;fill-rule:nonzero;stroke:none;stroke-width:1.06666672"
         d="m 0,0 v 116.1728 l -224.9888,47.45173 c -58.91947,12.27627 -117.82507,48.27947 -117.82507,118.63787 0,26.99947 18.00214,55.6352 43.36427,55.6352 11.45387,0 39.27147,-4.09173 51.54347,-7.36533 L 0,278.9888 v 116.17173 l -247.90613,52.36267 c -14.71787,3.2736 -55.63627,12.27627 -72.80854,12.27627 -73.64266,0 -113.73226,-43.35787 -113.73226,-123.53814 0,-60.5472 23.72586,-110.45333 70.36266,-148.0928 v -1.62773 l -58.90986,13.08587 V 88.3552 L 0,0"
         inkscape:connector-curvature="0" />
    </g>
    <g
       transform="matrix(0,0.18378044,0.18378044,0,589.45556,251.63429)"
       id="g3091">
      <path
         id="path3093"
         style="fill:#7c7b7b;fill-opacity:1;fill-rule:nonzero;stroke:none;stroke-width:1.06666672"
         d="m 0,0 v -116.1728 l 128.45013,-26.18133 v -74.45014 l 77.72374,-18.0064 v 76.08747 l 226.64106,-47.45173 c 14.7232,-3.2736 29.45067,-5.71947 40.08534,-5.71947 68.7264,-1.63627 85.90933,56.4448 85.90933,110.44373 0,24.544003 -1.63733,49.08907 -4.0928,72.81387 l -89.99573,19.6426667 c 1.63626,-13.9135997 2.4544,-27.8175997 2.4544,-41.7311997 0,-17.1776 -0.81814,-39.2672 -31.0912,-39.2672 -3.26934,0 -10.63574,1.637333 -19.64374,3.274666 l -210.26666,43.358934 v 82.634666 l -77.72374,17.9968 V -26.181333 L 0,0"
         inkscape:connector-curvature="0" />
    </g>
  </g>
</svg>
