<?xml version="1.0" encoding="UTF-8" standalone="no"?>
<!-- Created with Inkscape (http://www.inkscape.org/) -->

<svg
   xmlns:dc="http://purl.org/dc/elements/1.1/"
   xmlns:cc="http://creativecommons.org/ns#"
   xmlns:rdf="http://www.w3.org/1999/02/22-rdf-syntax-ns#"
   xmlns:svg="http://www.w3.org/2000/svg"
   xmlns="http://www.w3.org/2000/svg"
   xmlns:sodipodi="http://sodipodi.sourceforge.net/DTD/sodipodi-0.dtd"
   xmlns:inkscape="http://www.inkscape.org/namespaces/inkscape"
   width="600"
   height="200"
   viewBox="0 0 600 200"
   version="1.1"
   id="svg3880"
   inkscape:version="0.92.1 r15371"
   sodipodi:docname="netpoint_logo_en.svg">
  <defs
     id="defs3874" />
  <sodipodi:namedview
     id="base"
     pagecolor="#ffffff"
     bordercolor="#666666"
     borderopacity="1.0"
     inkscape:pageopacity="0.0"
     inkscape:pageshadow="2"
     inkscape:zoom="2.5"
     inkscape:cx="225.65421"
     inkscape:cy="120.06087"
     inkscape:document-units="px"
     inkscape:current-layer="layer1"
     showgrid="true"
     units="px"
     inkscape:window-width="1920"
     inkscape:window-height="1017"
     inkscape:window-x="3832"
     inkscape:window-y="-8"
     inkscape:window-maximized="1">
    <inkscape:grid
       type="xygrid"
       id="grid4759" />
  </sodipodi:namedview>
  <metadata
     id="metadata3877">
    <rdf:RDF>
      <cc:Work
         rdf:about="">
        <dc:format>image/svg+xml</dc:format>
        <dc:type
           rdf:resource="http://purl.org/dc/dcmitype/StillImage" />
        <dc:title></dc:title>
      </cc:Work>
    </rdf:RDF>
  </metadata>
  <g
     inkscape:label="Layer 1"
     inkscape:groupmode="layer"
     id="layer1"
     transform="translate(0,-244.08334)">
    <g
       transform="matrix(0,0.18378044,0.18378044,0,281.05596,289.92507)"
       id="g3003">
      <path
         id="path3005"
         style="fill:#7c7b7b;fill-opacity:1;fill-rule:evenodd;stroke:none;stroke-width:1.06666672"
         d="m 0,0 c 0,54.817067 43.364267,82.635733 94.088533,82.635733 74.460797,0 176.729597,-39.271466 176.729597,-126.8128 0,-56.454403 -37.63413,-83.453863 -91.63306,-83.453863 C 106.3712,-127.63093 0,-86.7232 0,0 m 495.81227,-312.53973 v 116.17706 l -205.35574,44.18774 v 2.4448 c 46.63254,18.00213 67.90294,69.545597 67.90294,118.643197 0,156.267733 -139.9136,229.899733 -278.998403,229.899733 -101.4496,0 -166.9024,-58.90987 -166.9024,-160.359467 0,-51.543466 19.6384,-100.631466 65.4528,-126.8128 l -1.637334,-1.637333 -52.3616,11.458133 V -190.63787 L 495.81227,-312.53973"
         inkscape:connector-curvature="0" />
    </g>
    <g
       transform="matrix(0,0.18378044,0.18378044,0,2.31744,353.67956)"
       id="g3067">
      <path
         id="path3069"
         style="fill:#e63027;fill-opacity:1;fill-rule:nonzero;stroke:none;stroke-width:1.06666672"
         d="m 0,0 v 116.18773 h -221.7152 c -85.91893,0 -121.09867,26.98987 -121.09867,89.9968 0,53.98934 34.36054,74.45014 103.90614,74.45014 H 0 V 396.8128 h -260.17813 c -104.72427,0 -174.2688,-31.08693 -174.2688,-154.62613 0,-49.09334 22.90666,-99.82827 70.36266,-129.27787 v -2.45547 h -58.90986 V 0 H 0"
         inkscape:connector-curvature="0" />
    </g>
    <path
       id="path3073"
       style="fill:#e63027;fill-opacity:1;fill-rule:evenodd;stroke:none;stroke-width:0.19603248"
       d="m 165.11722,319.99956 c 1.50338,-23.9091 -11.27676,-46.1629 -37.74036,-46.1629 -23.60662,0 -39.69501,17.7429 -39.69501,41.04861 0,24.05965 15.18683,40.89923 39.69501,40.89923 17.59254,0 30.37268,-7.81816 36.38754,-26.1619 h -18.795 c -1.3538,4.81162 -8.27022,10.07352 -16.84056,10.07352 -11.87839,0 -18.4941,-6.16444 -19.09572,-19.69656 z m -56.0841,-13.53486 c 0.30071,-6.01409 4.2098,-16.53966 17.74211,-16.53966 10.37522,0 15.03628,5.71415 16.99073,16.53966 h -34.73284"
       inkscape:connector-curvature="0" />
    <g
       transform="matrix(0,0.18378044,0.18378044,0,204.79066,252.6359)"
       id="g3075">
      <path
         id="path3077"
         style="fill:#e63027;fill-opacity:1;fill-rule:nonzero;stroke:none;stroke-width:1.06666672"
         d="m 0,0 v -116.17813 h 126.8128 v -70.36267 h 77.7248 v 70.36267 h 249.54773 c 84.26774,0 100.63147,62.179197 100.63147,133.35573 0,22.907733 -0.81813,48.269867 -4.09173,67.908267 H 459.81013 C 462.2656,72.813867 463.08373,61.36 463.08373,49.088 463.08373,9.8165333 453.2672,0 413.99573,0 H 204.5376 V 85.085867 H 126.8128 V 0 H 0"
         inkscape:connector-curvature="0" />
    </g>
    <g
       transform="matrix(0,0.18378044,0.18378044,0,325.80688,322.25492)"
       id="g3079">
      <path
         id="path3081"
         style="fill:#7c7b7b;fill-opacity:1;fill-rule:evenodd;stroke:none;stroke-width:1.06666672"
         d="m 0,0 c 121.08373,0 182.44373,76.0832 182.44373,193.90187 0,153.81226 -117.81013,246.26026 -266.72533,246.26026 -121.90293,0 -179.17547,-80.9984 -179.17547,-197.1712 C -263.45707,92.452267 -143.1776,0 0,0 m 0,116.17813 c -71.191467,0 -175.91573,37.6288 -175.91573,122.72 0,60.54614 36.82133,85.0912 93.279997,85.0912 71.181866,0 177.538133,-37.63946 177.538133,-124.35733 0,-54.81813 -44.996267,-83.45387 -94.9024,-83.45387"
         inkscape:connector-curvature="0" />
    </g>
    <g
       transform="matrix(0,0.18378044,0.18378044,0,411.62075,353.67956)"
       id="g3083">
      <path
         id="path3085"
         style="fill:#7c7b7b;fill-opacity:1;fill-rule:evenodd;stroke:none;stroke-width:1.06666672"
         d="m 0,0 v 117.00053 l -422.99413,89.99254 V 90.001067 Z m -584.16747,241.35893 v -116.992 l 95.7216,-21.26933 v 116.99093 z"
         inkscape:connector-curvature="0" />
    </g>
    <g
       transform="matrix(0,0.18378044,0.18378044,0,450.52871,353.67956)"
       id="g3087">
      <path
         id="path3089"
         style="fill:#7c7b7b;fill-opacity:1;fill-rule:nonzero;stroke:none;stroke-width:1.06666672"
         d="m 0,0 v 116.1728 l -224.9888,47.45173 c -58.91947,12.27627 -117.82507,48.27947 -117.82507,118.63787 0,26.99947 18.00214,55.6352 43.36427,55.6352 11.45387,0 39.27147,-4.09173 51.54347,-7.36533 L 0,278.9888 v 116.17173 l -247.90613,52.36267 c -14.71787,3.2736 -55.63627,12.27627 -72.80854,12.27627 -73.64266,0 -113.73226,-43.35787 -113.73226,-123.53814 0,-60.5472 23.72586,-110.45333 70.36266,-148.0928 v -1.62773 l -58.90986,13.08587 V 88.3552 L 0,0"
         inkscape:connector-curvature="0" />
    </g>
    <g
       transform="matrix(0,0.18378044,0.18378044,0,588.75699,252.33507)"
       id="g3091">
      <path
         id="path3093"
         style="fill:#7c7b7b;fill-opacity:1;fill-rule:nonzero;stroke:none;stroke-width:1.06666672"
         d="m 0,0 v -116.1728 l 128.45013,-26.18133 v -74.45014 l 77.72374,-18.0064 v 76.08747 l 226.64106,-47.45173 c 14.7232,-3.2736 29.45067,-5.71947 40.08534,-5.71947 68.7264,-1.63627 85.90933,56.4448 85.90933,110.44373 0,24.544003 -1.63733,49.08907 -4.0928,72.81387 l -89.99573,19.6426667 c 1.63626,-13.9135997 2.4544,-27.8175997 2.4544,-41.7311997 0,-17.1776 -0.81814,-39.2672 -31.0912,-39.2672 -3.26934,0 -10.63574,1.637333 -19.64374,3.274666 l -210.26666,43.358934 v 82.634666 l -77.72374,17.9968 V -26.181333 L 0,0"
         inkscape:connector-curvature="0" />
    </g>
    <g
       aria-label="IT for Business"
       style="font-style:normal;font-variant:normal;font-weight:normal;font-stretch:normal;font-size:53.33333206px;line-height:1.25;font-family:Helvetica;-inkscape-font-specification:Helvetica;letter-spacing:0px;word-spacing:0px;fill:#7c7b7b;fill-opacity:1;stroke:none"
       id="text4757">
      <path
         d="M 13.2875,440.48334 H 3.7250002 v -46.0625 H 13.2875 Z M 8.5062502,393.51459 Z"
         style="font-size:64px;fill:#7c7b7b;fill-opacity:1"
         id="path4761" />
      <path
         d="m 55.69375,394.42084 v 8.15625 H 41.9125 v 37.90625 H 32.225 V 402.57709 H 18.38125 v -8.15625 z"
         style="font-size:64px;fill:#7c7b7b;fill-opacity:1"
         id="path4763" />
      <path
         d="m 91.31875,393.95209 q 0.84375,0 1.53125,0.0625 0.6875,0.0312 1.875,0.125 v 7.25 q -0.75,-0.0937 -2.53125,-0.125 -1.75,-0.0625 -2.4375,0.78125 -0.65625,0.8125 -0.65625,1.8125 0,1 0,2.875 h 5.84375 v 6.28125 H 89.1 v 27.46875 h -8.875 v -27.46875 h -4.96875 v -6.28125 h 4.875 v -2.1875 q 0,-5.46875 1.84375,-7.53125 1.9375,-3.0625 9.34375,-3.0625 z"
         style="font-size:64px;fill:#7c7b7b;fill-opacity:1"
         id="path4765" />
      <path
         d="m 115.0375,434.20209 q 3.90625,0 6,-2.78125 2.09375,-2.78125 2.09375,-7.90625 0,-5.125 -2.09375,-7.875 -2.09375,-2.78125 -6,-2.78125 -3.90625,0 -6.03125,2.78125 -2.09375,2.75 -2.09375,7.875 0,5.125 2.09375,7.90625 2.125,2.78125 6.03125,2.78125 z m 17.4375,-10.6875 q 0,7.5 -4.3125,12.84375 -4.3125,5.3125 -13.09375,5.3125 -8.78125,0 -13.09375,-5.3125 -4.3125,-5.34375 -4.3125,-12.84375 0,-7.375 4.3125,-12.78125 4.3125,-5.40625 13.09375,-5.40625 8.78125,0 13.09375,5.40625 4.3125,5.40625 4.3125,12.78125 z m -17.40625,-18 z"
         style="font-size:64px;fill:#7c7b7b;fill-opacity:1"
         id="path4767" />
      <path
         d="m 157.38125,405.60834 q 0.25,0 0.40625,0.0312 0.1875,0 0.78125,0.0312 v 9.125 q -0.84375,-0.0937 -1.5,-0.125 -0.65625,-0.0312 -1.0625,-0.0312 -5.375,0 -7.21875,3.5 -1.03125,1.96875 -1.03125,6.0625 v 16.28125 h -8.96875 v -34.0625 h 8.5 v 5.9375 q 2.0625,-3.40625 3.59375,-4.65625 2.5,-2.09375 6.5,-2.09375 z"
         style="font-size:64px;fill:#7c7b7b;fill-opacity:1"
         id="path4769" />
      <path
         d="m 191.56875,402.42084 v 10.15625 h 11.3125 q 3.03125,0 4.90625,-1.125 1.90625,-1.15625 1.90625,-4.0625 0,-3.21875 -2.5,-4.25 -2.15625,-0.71875 -5.5,-0.71875 z m 0,17.78125 v 12.28125 h 11.3125 q 3.03125,0 4.71875,-0.8125 3.0625,-1.5 3.0625,-5.75 0,-3.59375 -2.96875,-4.9375 -1.65625,-0.75 -4.65625,-0.78125 z m 13.1875,-25.78125 q 8.46875,0.125 12,4.90625 2.125,2.9375 2.125,7.03125 0,4.21875 -2.125,6.78125 -1.1875,1.4375 -3.5,2.625 3.53125,1.28125 5.3125,4.0625 1.8125,2.78125 1.8125,6.75 0,4.09375 -2.0625,7.34375 -1.3125,2.15625 -3.28125,3.625 -2.21875,1.6875 -5.25,2.3125 -3,0.625 -6.53125,0.625 h -20.875 v -46.0625 z"
         style="font-size:64px;fill:#7c7b7b;fill-opacity:1"
         id="path4771" />
      <path
         d="m 236.38125,406.42084 v 20.53125 q 0,2.90625 0.6875,4.375 1.21875,2.59375 4.78125,2.59375 4.5625,0 6.25,-3.6875 0.875,-2 0.875,-5.28125 v -18.53125 h 9.03125 v 34.0625 H 249.35 v -4.8125 q -0.125,0.15625 -0.625,0.9375 -0.5,0.78125 -1.1875,1.375 -2.09375,1.875 -4.0625,2.5625 -1.9375,0.6875 -4.5625,0.6875 -7.5625,0 -10.1875,-5.4375 -1.46875,-3 -1.46875,-8.84375 v -20.53125 z m 6.25,-0.90625 z"
         style="font-size:64px;fill:#7c7b7b;fill-opacity:1"
         id="path4773" />
      <path
         d="m 273.44375,429.60834 q 0.28125,2.375 1.21875,3.375 1.65625,1.78125 6.125,1.78125 2.625,0 4.15625,-0.78125 1.5625,-0.78125 1.5625,-2.34375 0,-1.5 -1.25,-2.28125 -1.25,-0.78125 -9.28125,-2.6875 -5.78125,-1.4375 -8.15625,-3.59375 -2.375,-2.125 -2.375,-6.125 0,-4.71875 3.6875,-8.09375 3.71875,-3.40625 10.4375,-3.40625 6.375,0 10.375,2.5625 4.03125,2.53125 4.625,8.78125 h -8.90625 q -0.1875,-1.71875 -0.96875,-2.71875 -1.46875,-1.8125 -5,-1.8125 -2.90625,0 -4.15625,0.90625 -1.21875,0.90625 -1.21875,2.125 0,1.53125 1.3125,2.21875 1.3125,0.71875 9.28125,2.46875 5.3125,1.25 7.96875,3.78125 2.625,2.5625 2.625,6.40625 0,5.0625 -3.78125,8.28125 -3.75,3.1875 -11.625,3.1875 -8.03125,0 -11.875,-3.375 -3.8125,-3.40625 -3.8125,-8.65625 z m 6.8125,-24.09375 z"
         style="font-size:64px;fill:#7c7b7b;fill-opacity:1"
         id="path4775" />
      <path
         d="m 311.2875,402.35834 h -9.03125 v -8.21875 h 9.03125 z m -9.03125,4.0625 h 9.03125 v 34.0625 h -9.03125 z"
         style="font-size:64px;fill:#7c7b7b;fill-opacity:1"
         id="path4777" />
      <path
         d="m 338.63125,405.60834 q 5.28125,0 8.625,2.78125 3.375,2.75 3.375,9.15625 v 22.9375 h -9.125 v -20.71875 q 0,-2.6875 -0.71875,-4.125 -1.3125,-2.625 -5,-2.625 -4.53125,0 -6.21875,3.84375 -0.875,2.03125 -0.875,5.1875 v 18.4375 h -8.875 v -34 h 8.59375 v 4.96875 q 1.71875,-2.625 3.25,-3.78125 2.75,-2.0625 6.96875,-2.0625 z m -3.28125,-0.0937 z"
         style="font-size:64px;fill:#7c7b7b;fill-opacity:1"
         id="path4779" />
      <path
         d="m 372.19375,412.85834 q -3.09375,0 -4.8125,1.9375 -1.6875,1.9375 -2.125,5.25 H 379.1 q -0.21875,-3.53125 -2.15625,-5.34375 -1.90625,-1.84375 -4.75,-1.84375 z m 0,-7.34375 q 4.25,0 7.65625,1.59375 3.40625,1.59375 5.625,5.03125 2,3.03125 2.59375,7.03125 0.34375,2.34375 0.28125,6.75 h -23.3125 q 0.1875,5.125 3.21875,7.1875 1.84375,1.28125 4.4375,1.28125 2.75,0 4.46875,-1.5625 0.9375,-0.84375 1.65625,-2.34375 h 9.09375 q -0.34375,3.03125 -3.15625,6.15625 -4.375,4.96875 -12.25,4.96875 -6.5,0 -11.46875,-4.1875 -4.96875,-4.1875 -4.96875,-13.625 0,-8.84375 4.46875,-13.5625 4.5,-4.71875 11.65625,-4.71875 z m 0.625,0 z"
         style="font-size:64px;fill:#7c7b7b;fill-opacity:1"
         id="path4781" />
      <path
         d="m 402.56875,429.60834 q 0.28125,2.375 1.21875,3.375 1.65625,1.78125 6.125,1.78125 2.625,0 4.15625,-0.78125 1.5625,-0.78125 1.5625,-2.34375 0,-1.5 -1.25,-2.28125 -1.25,-0.78125 -9.28125,-2.6875 -5.78125,-1.4375 -8.15625,-3.59375 -2.375,-2.125 -2.375,-6.125 0,-4.71875 3.6875,-8.09375 3.71875,-3.40625 10.4375,-3.40625 6.375,0 10.375,2.5625 4.03125,2.53125 4.625,8.78125 h -8.90625 q -0.1875,-1.71875 -0.96875,-2.71875 -1.46875,-1.8125 -5,-1.8125 -2.90625,0 -4.15625,0.90625 -1.21875,0.90625 -1.21875,2.125 0,1.53125 1.3125,2.21875 1.3125,0.71875 9.28125,2.46875 5.3125,1.25 7.96875,3.78125 2.625,2.5625 2.625,6.40625 0,5.0625 -3.78125,8.28125 -3.75,3.1875 -11.625,3.1875 -8.03125,0 -11.875,-3.375 -3.8125,-3.40625 -3.8125,-8.65625 z m 6.8125,-24.09375 z"
         style="font-size:64px;fill:#7c7b7b;fill-opacity:1"
         id="path4783" />
      <path
         d="m 438.19375,429.60834 q 0.28125,2.375 1.21875,3.375 1.65625,1.78125 6.125,1.78125 2.625,0 4.15625,-0.78125 1.5625,-0.78125 1.5625,-2.34375 0,-1.5 -1.25,-2.28125 -1.25,-0.78125 -9.28125,-2.6875 -5.78125,-1.4375 -8.15625,-3.59375 -2.375,-2.125 -2.375,-6.125 0,-4.71875 3.6875,-8.09375 3.71875,-3.40625 10.4375,-3.40625 6.375,0 10.375,2.5625 4.03125,2.53125 4.625,8.78125 h -8.90625 q -0.1875,-1.71875 -0.96875,-2.71875 -1.46875,-1.8125 -5,-1.8125 -2.90625,0 -4.15625,0.90625 -1.21875,0.90625 -1.21875,2.125 0,1.53125 1.3125,2.21875 1.3125,0.71875 9.28125,2.46875 5.3125,1.25 7.96875,3.78125 2.625,2.5625 2.625,6.40625 0,5.0625 -3.78125,8.28125 -3.75,3.1875 -11.625,3.1875 -8.03125,0 -11.875,-3.375 -3.8125,-3.40625 -3.8125,-8.65625 z m 6.8125,-24.09375 z"
         style="font-size:64px;fill:#7c7b7b;fill-opacity:1"
         id="path4785" />
    </g>
  </g>
</svg>
